<mxfile host="65bd71144e">
    <diagram id="tJszx6Gl-No6UOS6jMcy" name="Chart">
        <mxGraphModel dx="850" dy="975" grid="1" gridSize="10" guides="1" tooltips="1" connect="1" arrows="1" fold="1" page="1" pageScale="1" pageWidth="850" pageHeight="1100" math="0" shadow="0">
            <root>
                <mxCell id="0" />
                <mxCell id="1" parent="0" />
                <mxCell id="FmhOpoX-yID1eiWGU3ZW-1" value="Opinnot" style="whiteSpace=wrap;rounded=1;shadow=1;fillColor=#10739E;strokeColor=none;fontColor=#FFFFFF;fontStyle=1;fontSize=24" vertex="1" parent="1">
                    <mxGeometry x="220" width="340" height="60" as="geometry" />
                </mxCell>
                <mxCell id="FmhOpoX-yID1eiWGU3ZW-2" value="taso 1" style="whiteSpace=wrap;rounded=1;fillColor=#F2931E;strokeColor=none;shadow=1;fontColor=#FFFFFF;fontStyle=1;fontSize=14" vertex="1" parent="1">
                    <mxGeometry x="90" y="120" width="140" height="60" as="geometry" />
                </mxCell>
                <mxCell id="FmhOpoX-yID1eiWGU3ZW-3" value="Jamk" style="whiteSpace=wrap;rounded=1;fillColor=#F2931E;strokeColor=none;shadow=1;fontColor=#FFFFFF;fontStyle=1;fontSize=14" vertex="1" parent="1">
                    <mxGeometry x="460" y="120" width="140" height="60" as="geometry" />
                </mxCell>
                <mxCell id="FmhOpoX-yID1eiWGU3ZW-8" value="taso 2" style="whiteSpace=wrap;rounded=1;fillColor=#12AAB5;strokeColor=none;shadow=1;fontColor=#FFFFFF;" vertex="1" parent="1">
                    <mxGeometry y="240" width="120" height="60" as="geometry" />
                </mxCell>
                <mxCell id="FmhOpoX-yID1eiWGU3ZW-9" value="Kurssi2" style="whiteSpace=wrap;rounded=1;fillColor=#12AAB5;strokeColor=none;shadow=1;fontColor=#FFFFFF;" vertex="1" parent="1">
                    <mxGeometry x="160" y="240" width="120" height="60" as="geometry" />
                </mxCell>
                <mxCell id="FmhOpoX-yID1eiWGU3ZW-10" value="taso 3" style="whiteSpace=wrap;rounded=1;fillColor=#999999;strokeColor=none;shadow=1;fontColor=#FFFFFF;fontStyle=0" vertex="1" parent="1">
                    <mxGeometry x="0" y="340" width="120" height="60" as="geometry" />
                </mxCell>
                <mxCell id="FmhOpoX-yID1eiWGU3ZW-11" value="WORK&#10;PACKAGE 2" style="whiteSpace=wrap;rounded=1;fillColor=#999999;strokeColor=none;shadow=1;fontColor=#FFFFFF;fontStyle=0" vertex="1" parent="1">
                    <mxGeometry x="0" y="420" width="120" height="60" as="geometry" />
                </mxCell>
                <mxCell id="FmhOpoX-yID1eiWGU3ZW-15" value="WORK&#10;PACKAGE 1" style="whiteSpace=wrap;rounded=1;fillColor=#999999;strokeColor=none;shadow=1;fontColor=#FFFFFF;fontStyle=0" vertex="1" parent="1">
                    <mxGeometry x="160" y="340" width="120" height="60" as="geometry" />
                </mxCell>
                <mxCell id="FmhOpoX-yID1eiWGU3ZW-16" value="WORK&#10;PACKAGE 2" style="whiteSpace=wrap;rounded=1;fillColor=#999999;strokeColor=none;shadow=1;fontColor=#FFFFFF;fontStyle=0" vertex="1" parent="1">
                    <mxGeometry x="160" y="420" width="120" height="60" as="geometry" />
                </mxCell>
                <mxCell id="FmhOpoX-yID1eiWGU3ZW-20" value="Kurssi 1" style="whiteSpace=wrap;rounded=1;fillColor=#12AAB5;strokeColor=none;shadow=1;fontColor=#FFFFFF;" vertex="1" parent="1">
                    <mxGeometry x="400" y="240" width="120" height="60" as="geometry" />
                </mxCell>
                <mxCell id="FmhOpoX-yID1eiWGU3ZW-21" value="SUB-TASK 2" style="whiteSpace=wrap;rounded=1;fillColor=#12AAB5;strokeColor=none;shadow=1;fontColor=#FFFFFF;" vertex="1" parent="1">
                    <mxGeometry x="560" y="240" width="120" height="60" as="geometry" />
                </mxCell>
                <mxCell id="FmhOpoX-yID1eiWGU3ZW-22" value="WORK&#10;PACKAGE 1" style="whiteSpace=wrap;rounded=1;fillColor=#999999;strokeColor=none;shadow=1;fontColor=#FFFFFF;fontStyle=0" vertex="1" parent="1">
                    <mxGeometry x="400" y="340" width="120" height="60" as="geometry" />
                </mxCell>
                <mxCell id="FmhOpoX-yID1eiWGU3ZW-23" value="WORK&#10;PACKAGE 2" style="whiteSpace=wrap;rounded=1;fillColor=#999999;strokeColor=none;shadow=1;fontColor=#FFFFFF;fontStyle=0" vertex="1" parent="1">
                    <mxGeometry x="400" y="420" width="120" height="60" as="geometry" />
                </mxCell>
                <mxCell id="FmhOpoX-yID1eiWGU3ZW-27" value="WORK&#10;PACKAGE 1" style="whiteSpace=wrap;rounded=1;fillColor=#999999;strokeColor=none;shadow=1;fontColor=#FFFFFF;fontStyle=0" vertex="1" parent="1">
                    <mxGeometry x="560" y="340" width="120" height="60" as="geometry" />
                </mxCell>
                <mxCell id="FmhOpoX-yID1eiWGU3ZW-28" value="WORK&#10;PACKAGE 2" style="whiteSpace=wrap;rounded=1;fillColor=#999999;strokeColor=none;shadow=1;fontColor=#FFFFFF;fontStyle=0" vertex="1" parent="1">
                    <mxGeometry x="560" y="420" width="120" height="60" as="geometry" />
                </mxCell>
            <mxCell id="7566067535" value="task1" style="whiteSpace=wrap;rounded=1;shadow=1;fillColor=#326CAD;strokeColor=none;fontColor=#FFFFFF;fontStyle=0;fontSize=12;strokeWidth=5;strokeColor=#ff0000;" parent="1" vertex="1"><mxGeometry x="0" y="340" width="120" height="60" as="geometry" /></mxCell><mxCell id="7566067765" value="task6" style="whiteSpace=wrap;rounded=1;shadow=1;fillColor=#326CAD;strokeColor=none;fontColor=#FFFFFF;fontStyle=0;fontSize=12;strokeWidth=5;strokeColor=#ffa500;" parent="1" vertex="1"><mxGeometry x="0" y="420" width="120" height="60" as="geometry" /></mxCell><mxCell id="Projektisalkun johtaminen1" value="Projektisalkun johtaminen" style="whiteSpace=wrap;rounded=1;shadow=1;fillColor=#326CAD;strokeColor=none;fontColor=#FFFFFF;fontStyle=1;fontSize=14;strokeWidth=0;strokeColor=#000000;" parent="1" vertex="1"><mxGeometry x="0" y="250" width="120" height="60" as="geometry" /></mxCell><mxCell id="7566067599" value="task3" style="whiteSpace=wrap;rounded=1;shadow=1;fillColor=#0974ED;strokeColor=none;fontColor=#FFFFFF;fontStyle=0;fontSize=12;strokeWidth=5;strokeColor=#ff0000;" parent="1" vertex="1"><mxGeometry x="150" y="340" width="120" height="60" as="geometry" /></mxCell><mxCell id="Projektit liiketoimintana2" value="Projektit liiketoimintana" style="whiteSpace=wrap;rounded=1;shadow=1;fillColor=#0974ED;strokeColor=none;fontColor=#FFFFFF;fontStyle=1;fontSize=14;strokeWidth=0;strokeColor=#000000;" parent="1" vertex="1"><mxGeometry x="150" y="250" width="120" height="60" as="geometry" /></mxCell><mxCell id="7566067730" value="task5" style="whiteSpace=wrap;rounded=1;shadow=1;fillColor=#987639;strokeColor=none;fontColor=#FFFFFF;fontStyle=0;fontSize=12;strokeWidth=5;strokeColor=#FFFFFF;" parent="1" vertex="1"><mxGeometry x="300" y="340" width="120" height="60" as="geometry" /></mxCell><mxCell id="7566067863" value="task10" style="whiteSpace=wrap;rounded=1;shadow=1;fillColor=#987639;strokeColor=none;fontColor=#FFFFFF;fontStyle=0;fontSize=12;strokeWidth=5;strokeColor=#FFFFFF;" parent="1" vertex="1"><mxGeometry x="300" y="420" width="120" height="60" as="geometry" /></mxCell><mxCell id="7566067965" value="task14" style="whiteSpace=wrap;rounded=1;shadow=1;fillColor=#987639;strokeColor=none;fontColor=#FFFFFF;fontStyle=0;fontSize=12;strokeWidth=5;strokeColor=#ff0000;" parent="1" vertex="1"><mxGeometry x="300" y="500" width="120" height="60" as="geometry" /></mxCell><mxCell id="Lean menetelm&#228;t3" value="Lean menetelm&#228;t" style="whiteSpace=wrap;rounded=1;shadow=1;fillColor=#987639;strokeColor=none;fontColor=#FFFFFF;fontStyle=1;fontSize=14;strokeWidth=0;strokeColor=#000000;" parent="1" vertex="1"><mxGeometry x="300" y="250" width="120" height="60" as="geometry" /></mxCell><mxCell id="7566067896" value="task11" style="whiteSpace=wrap;rounded=1;shadow=1;fillColor=#3B536E;strokeColor=none;fontColor=#FFFFFF;fontStyle=0;fontSize=12;strokeWidth=5;strokeColor=#3cb371;" parent="1" vertex="1"><mxGeometry x="450" y="340" width="120" height="60" as="geometry" /></mxCell><mxCell id="7566067974" value="task15" style="whiteSpace=wrap;rounded=1;shadow=1;fillColor=#3B536E;strokeColor=none;fontColor=#FFFFFF;fontStyle=0;fontSize=12;strokeWidth=5;strokeColor=#ff0000;" parent="1" vertex="1"><mxGeometry x="450" y="420" width="120" height="60" as="geometry" /></mxCell><mxCell id="7566067991" value="task16" style="whiteSpace=wrap;rounded=1;shadow=1;fillColor=#3B536E;strokeColor=none;fontColor=#FFFFFF;fontStyle=0;fontSize=12;strokeWidth=5;strokeColor=#FFFFFF;" parent="1" vertex="1"><mxGeometry x="450" y="500" width="120" height="60" as="geometry" /></mxCell><mxCell id="Olio-ohjelmointi4" value="Olio-ohjelmointi" style="whiteSpace=wrap;rounded=1;shadow=1;fillColor=#3B536E;strokeColor=none;fontColor=#FFFFFF;fontStyle=1;fontSize=14;strokeWidth=0;strokeColor=#000000;" parent="1" vertex="1"><mxGeometry x="450" y="250" width="120" height="60" as="geometry" /></mxCell><mxCell id="7566067943" value="task13" style="whiteSpace=wrap;rounded=1;shadow=1;fillColor=#ED9B09;strokeColor=none;fontColor=#FFFFFF;fontStyle=0;fontSize=12;strokeWidth=5;strokeColor=#3cb371;" parent="1" vertex="1"><mxGeometry x="600" y="340" width="120" height="60" as="geometry" /></mxCell><mxCell id="Luova ongelmaratkaisu5" value="Luova ongelmaratkaisu" style="whiteSpace=wrap;rounded=1;shadow=1;fillColor=#ED9B09;strokeColor=none;fontColor=#FFFFFF;fontStyle=1;fontSize=14;strokeWidth=0;strokeColor=#000000;" parent="1" vertex="1"><mxGeometry x="600" y="250" width="120" height="60" as="geometry" /></mxCell><mxCell id="143855173" value="Projektijohtaminen" style="whiteSpace=wrap;rounded=1;shadow=1;fillColor=#F007DA;strokeColor=none;fontColor=#FFFFFF;fontStyle=1;fontSize=14;strokeWidth=0;strokeColor=#000000;" parent="1" vertex="1"><mxGeometry x="290.0" y="120" width="120" height="60" as="geometry" /></mxCell><mxCell id="7566067574" value="task2" style="whiteSpace=wrap;rounded=1;shadow=1;fillColor=#326CAD;strokeColor=none;fontColor=#FFFFFF;fontStyle=0;fontSize=12;strokeWidth=5;strokeColor=#ff0000;" parent="1" vertex="1"><mxGeometry x="800" y="340" width="120" height="60" as="geometry" /></mxCell><mxCell id="7566067822" value="task8" style="whiteSpace=wrap;rounded=1;shadow=1;fillColor=#326CAD;strokeColor=none;fontColor=#FFFFFF;fontStyle=0;fontSize=12;strokeWidth=5;strokeColor=#ffa500;" parent="1" vertex="1"><mxGeometry x="800" y="420" width="120" height="60" as="geometry" /></mxCell><mxCell id="Olio-ohjelmointi6" value="Olio-ohjelmointi" style="whiteSpace=wrap;rounded=1;shadow=1;fillColor=#326CAD;strokeColor=none;fontColor=#FFFFFF;fontStyle=1;fontSize=14;strokeWidth=0;strokeColor=#000000;" parent="1" vertex="1"><mxGeometry x="800" y="250" width="120" height="60" as="geometry" /></mxCell><mxCell id="7566067654" value="task4" style="whiteSpace=wrap;rounded=1;shadow=1;fillColor=#0974ED;strokeColor=none;fontColor=#FFFFFF;fontStyle=0;fontSize=12;strokeWidth=5;strokeColor=#3cb371;" parent="1" vertex="1"><mxGeometry x="950" y="340" width="120" height="60" as="geometry" /></mxCell><mxCell id="7566067787" value="task7" style="whiteSpace=wrap;rounded=1;shadow=1;fillColor=#0974ED;strokeColor=none;fontColor=#FFFFFF;fontStyle=0;fontSize=12;strokeWidth=5;strokeColor=#FFFFFF;" parent="1" vertex="1"><mxGeometry x="950" y="420" width="120" height="60" as="geometry" /></mxCell><mxCell id="7566068049" value="task19" style="whiteSpace=wrap;rounded=1;shadow=1;fillColor=#0974ED;strokeColor=none;fontColor=#FFFFFF;fontStyle=0;fontSize=12;strokeWidth=5;strokeColor=#ffa500;" parent="1" vertex="1"><mxGeometry x="950" y="500" width="120" height="60" as="geometry" /></mxCell><mxCell id="7566068070" value="task20" style="whiteSpace=wrap;rounded=1;shadow=1;fillColor=#0974ED;strokeColor=none;fontColor=#FFFFFF;fontStyle=0;fontSize=12;strokeWidth=5;strokeColor=#ffa500;" parent="1" vertex="1"><mxGeometry x="950" y="580" width="120" height="60" as="geometry" /></mxCell><mxCell id="Projektisalkun johtaminen7" value="Projektisalkun johtaminen" style="whiteSpace=wrap;rounded=1;shadow=1;fillColor=#0974ED;strokeColor=none;fontColor=#FFFFFF;fontStyle=1;fontSize=14;strokeWidth=0;strokeColor=#000000;" parent="1" vertex="1"><mxGeometry x="950" y="250" width="120" height="60" as="geometry" /></mxCell><mxCell id="7566067846" value="task9" style="whiteSpace=wrap;rounded=1;shadow=1;fillColor=#987639;strokeColor=none;fontColor=#FFFFFF;fontStyle=0;fontSize=12;strokeWidth=5;strokeColor=#3cb371;" parent="1" vertex="1"><mxGeometry x="1100" y="340" width="120" height="60" as="geometry" /></mxCell><mxCell id="7566068006" value="task17" style="whiteSpace=wrap;rounded=1;shadow=1;fillColor=#987639;strokeColor=none;fontColor=#FFFFFF;fontStyle=0;fontSize=12;strokeWidth=5;strokeColor=#ffa500;" parent="1" vertex="1"><mxGeometry x="1100" y="420" width="120" height="60" as="geometry" /></mxCell><mxCell id="Luova ongelmaratkaisu8" value="Luova ongelmaratkaisu" style="whiteSpace=wrap;rounded=1;shadow=1;fillColor=#987639;strokeColor=none;fontColor=#FFFFFF;fontStyle=1;fontSize=14;strokeWidth=0;strokeColor=#000000;" parent="1" vertex="1"><mxGeometry x="1100" y="250" width="120" height="60" as="geometry" /></mxCell><mxCell id="7566067919" value="task12" style="whiteSpace=wrap;rounded=1;shadow=1;fillColor=#3B536E;strokeColor=none;fontColor=#FFFFFF;fontStyle=0;fontSize=12;strokeWidth=5;strokeColor=#ff0000;" parent="1" vertex="1"><mxGeometry x="1250" y="340" width="120" height="60" as="geometry" /></mxCell><mxCell id="Lean menetelm&#228;t9" value="Lean menetelm&#228;t" style="whiteSpace=wrap;rounded=1;shadow=1;fillColor=#3B536E;strokeColor=none;fontColor=#FFFFFF;fontStyle=1;fontSize=14;strokeWidth=0;strokeColor=#000000;" parent="1" vertex="1"><mxGeometry x="1250" y="250" width="120" height="60" as="geometry" /></mxCell><mxCell id="7566068025" value="task18" style="whiteSpace=wrap;rounded=1;shadow=1;fillColor=#ED9B09;strokeColor=none;fontColor=#FFFFFF;fontStyle=0;fontSize=12;strokeWidth=5;strokeColor=#ffa500;" parent="1" vertex="1"><mxGeometry x="1400" y="340" width="120" height="60" as="geometry" /></mxCell><mxCell id="Algoritmit10" value="Algoritmit" style="whiteSpace=wrap;rounded=1;shadow=1;fillColor=#ED9B09;strokeColor=none;fontColor=#FFFFFF;fontStyle=1;fontSize=14;strokeWidth=0;strokeColor=#000000;" parent="1" vertex="1"><mxGeometry x="1400" y="250" width="120" height="60" as="geometry" /></mxCell><mxCell id="143855203" value="Jamk" style="whiteSpace=wrap;rounded=1;shadow=1;fillColor=#F007DA;strokeColor=none;fontColor=#FFFFFF;fontStyle=1;fontSize=14;strokeWidth=0;strokeColor=#000000;" parent="1" vertex="1"><mxGeometry x="940.0" y="120" width="120" height="60" as="geometry" /></mxCell></root>
        </mxGraphModel>
    </diagram>
</mxfile>